<?xml version="1.0" ?><svg id="Layer_1" style="enable-background:new 0 0 100 100;" version="1.1" viewBox="0 0 100 100" xml:space="preserve" xmlns="http://www.w3.org/2000/svg" xmlns:xlink="http://www.w3.org/1999/xlink"><style type="text/css">
	.st0{fill:none;stroke:#000000;stroke-width:2;stroke-miterlimit:10;}
	.st1{fill:none;stroke:#000000;stroke-miterlimit:10;}
</style><g><g><g><path d="M37.1,57.7c2.6,4.5,7.5,7.4,12.9,7.4c5.4,0,10.2-2.9,12.9-7.4c13.9,0.3,21.9,1,26,1.6C84.7,77.1,68.7,90.1,50,90.1     c-18.7,0-34.7-12.9-38.9-30.7C15.2,58.7,23.2,58,37.1,57.7 M40.3,52.6c-17.2,0.3-32.5,1.3-35,3.1C8.2,77.9,27.1,95.1,50,95.1     c22.9,0,41.8-17.1,44.6-39.3c-2.5-1.8-17.7-2.8-35-3.1c-1.1,4.3-5,7.4-9.7,7.4C45.4,60.1,41.5,56.9,40.3,52.6L40.3,52.6z"/></g><circle cx="50" cy="50.1" r="7"/></g><path d="M50,4.9c-24.9,0-45,20.1-45,45c0,0.4,0,0.7,0,1.1c0.2-0.7,2-1.2,5-1.7C10.3,28.4,26.7,10.5,47.3,9c1.4-0.1,2.7,1.1,2.7,2.5   v0c0,1.3-1,2.4-2.3,2.5C29.5,15.2,15.1,30.3,15,48.7c6.5-0.6,15.6-1,25.3-1.2c1.1-4.4,5-7.6,9.7-7.6c4.7,0,8.6,3.2,9.7,7.6   C78.2,47.8,94.5,49,95,51.1c0-0.4,0-0.7,0-1.1C95,25.1,74.9,4.9,50,4.9z"/></g></svg>