<?xml version="1.0" ?><!DOCTYPE svg  PUBLIC '-//W3C//DTD SVG 1.1//EN'  'http://www.w3.org/Graphics/SVG/1.1/DTD/svg11.dtd'><svg height="1.6699in" style="shape-rendering:geometricPrecision; text-rendering:geometricPrecision; image-rendering:optimizeQuality; fill-rule:evenodd; clip-rule:evenodd" version="1.1" viewBox="0 0 228 228" width="1.6699in" xml:space="preserve" xmlns="http://www.w3.org/2000/svg" xmlns:xlink="http://www.w3.org/1999/xlink"><defs><style type="text/css">
   <![CDATA[
    .fil1 {fill:#FEFEFE}
    .fil3 {fill:#DCDDDD}
    .fil0 {fill:#C9CACA}
    .fil5 {fill:#332C2B}
    .fil2 {fill:#154E59}
    .fil4 {fill:#739C34}
    .fil7 {fill:#F9262D}
    .fil6 {fill:#FEFEFE;fill-opacity:0.501961}
   ]]>
  </style></defs><g id="Layer_x0020_1"><g id="_1853994311072"><circle class="fil0" cx="114" cy="114" r="114"/><path class="fil1" d="M222 114c0,59 -49,108 -108,108 -60,0 -108,-49 -108,-108l216 0z"/><path class="fil2" d="M114 6c-60,0 -108,48 -108,108l216 0c0,-60 -49,-108 -108,-108z"/><path class="fil3" d="M38 182c22,28 120,30 177,-49 -29,113 -153,90 -177,49z"/><path class="fil4" d="M62 118c0,-5 -45,44 -16,72 29,27 58,-41 58,-41l10 -35 -52 4z"/><path class="fil4" d="M185 33c16,14 28,32 33,54l-92 18 -2 -13 61 -59z"/><path class="fil4" d="M43 33c-16,14 -28,32 -33,54l91 18 3 -13 -61 -59z"/><path class="fil4" d="M166 118c0,-5 44,44 15,72 -28,27 -58,-41 -58,-41l-9 -35 52 4z"/><path class="fil5" d="M221 105c0,3 1,6 1,9 0,2 0,5 -1,7l-215 0c0,-2 0,-5 0,-7 0,-3 0,-6 0,-9l215 0z"/><circle class="fil5" cx="114" cy="114" r="36"/><circle class="fil1" cx="114" cy="114" r="24"/><path class="fil6" d="M18 88c0,0 1,-36 44,-63 42,-27 40,-4 30,4 -7,6 -55,7 -74,59z"/><path class="fil7" d="M136 65c0,0 -1,8 -6,8 -1,1 -2,0 -3,0 -1,-1 -2,-3 -2,-5 0,-4 10,-4 11,-3z"/><path class="fil7" d="M92 65c0,0 1,8 6,8 1,1 2,0 3,0 1,-1 2,-3 2,-5 0,-4 -10,-4 -11,-3z"/></g></g></svg>