<?xml version="1.0" ?><!DOCTYPE svg  PUBLIC '-//W3C//DTD SVG 1.1//EN'  'http://www.w3.org/Graphics/SVG/1.1/DTD/svg11.dtd'><svg height="1.6699in" style="shape-rendering:geometricPrecision; text-rendering:geometricPrecision; image-rendering:optimizeQuality; fill-rule:evenodd; clip-rule:evenodd" version="1.1" viewBox="0 0 223 223" width="1.6699in" xml:space="preserve" xmlns="http://www.w3.org/2000/svg" xmlns:xlink="http://www.w3.org/1999/xlink"><defs><style type="text/css">
   <![CDATA[
    .fil1 {fill:#FEFEFE}
    .fil3 {fill:#DCDDDD}
    .fil0 {fill:#C9CACA}
    .fil2 {fill:#474443}
    .fil5 {fill:#332C2B}
    .fil6 {fill:#E62129;fill-rule:nonzero}
    .fil4 {fill:#FEFEFE;fill-opacity:0.501961}
   ]]>
  </style></defs><g id="Layer_x0020_1"><circle class="fil0" cx="112" cy="112" r="112"/><path class="fil1" d="M217 112c0,58 -47,105 -105,105 -59,0 -106,-47 -106,-105l211 0z"/><path class="fil2" d="M112 6c58,0 105,47 105,106l-211 0c0,-59 47,-106 106,-106z"/><path class="fil3" d="M37 179c22,27 118,29 174,-49 -29,111 -150,88 -174,49z"/><path class="fil4" d="M18 81c0,0 2,-29 36,-51 34,-21 32,-3 24,4 -5,5 -45,5 -60,47z"/><path class="fil5" d="M217 103c0,3 0,6 0,9 0,2 0,4 0,6l-211 0c0,-2 0,-4 0,-6 0,-3 0,-6 0,-9l211 0z"/><circle class="fil5" cx="112" cy="112" r="35"/><circle class="fil1" cx="112" cy="112" r="23"/><path class="fil6" d="M91 75l0 -46 23 0c5,0 10,0 12,1 3,1 5,2 6,4 2,3 3,5 3,8 0,3 -1,6 -4,8 -2,2 -6,4 -10,4 2,2 4,3 5,4 2,2 4,4 7,8l6 9 -13 0 -8 -10c-2,-4 -4,-6 -5,-7 -1,-1 -2,-2 -4,-2 -1,0 -3,0 -5,0l-2 0 0 19 -11 0zm11 -27l8 0c5,0 8,0 9,0 2,-1 3,-1 3,-2 1,-1 2,-2 2,-4 0,-1 -1,-3 -2,-4 -1,0 -2,-1 -4,-1 -1,0 -3,0 -8,0l-8 0 0 11z"/></g></svg>