<?xml version="1.0" ?><!DOCTYPE svg  PUBLIC '-//W3C//DTD SVG 1.1//EN'  'http://www.w3.org/Graphics/SVG/1.1/DTD/svg11.dtd'><svg height="1.6699in" style="shape-rendering:geometricPrecision; text-rendering:geometricPrecision; image-rendering:optimizeQuality; fill-rule:evenodd; clip-rule:evenodd" version="1.1" viewBox="0 0 657 657" width="1.6699in" xml:space="preserve" xmlns="http://www.w3.org/2000/svg" xmlns:xlink="http://www.w3.org/1999/xlink"><defs><style type="text/css">
   <![CDATA[
    .fil1 {fill:#FEFEFE}
    .fil4 {fill:#DCDDDD}
    .fil0 {fill:#C9CACA}
    .fil3 {fill:#332C2B}
    .fil2 {fill:#FEE226}
    .fil5 {fill:#FF5B4B}
    .fil6 {fill:#FEFEFE;fill-opacity:0.501961}
   ]]>
  </style></defs><g id="Layer_x0020_1"><g id="_1853869063904"><circle class="fil0" cx="328" cy="328" r="328"/><path class="fil1" d="M639 328c0,172 -139,311 -311,311 -171,0 -310,-139 -310,-311l621 0z"/><path class="fil2" d="M328 18c172,0 311,139 311,310l-621 0c0,-171 139,-310 310,-310z"/><path class="fil3" d="M328 18c84,0 161,33 217,87l-433 0c56,-54 132,-87 216,-87z"/><path class="fil4" d="M108 526c66,81 348,86 513,-143 -85,327 -441,260 -513,143z"/><path class="fil5" d="M378 22c32,5 63,15 90,29l-106 207 -34 -18 -33 18 -106 -207c27,-14 58,-24 90,-29l49 83 50 -83z"/><path class="fil3" d="M638 304c1,8 1,16 1,24 0,7 0,14 0,21l-621 0c0,-7 0,-14 0,-21 0,-8 0,-16 1,-24l619 0z"/><circle class="fil3" cx="328" cy="328" r="104"/><circle class="fil1" cx="328" cy="328" r="68"/><path class="fil6" d="M51 255c0,0 5,-106 127,-183 123,-77 117,-13 88,13 -19,17 -161,18 -215,170z"/></g></g></svg>